<svg width="1280" height="701" viewBox="0 0 1280 701" fill="none" xmlns="http://www.w3.org/2000/svg">
<g clip-path="url(#clip0_41_2)">
<rect width="1280" height="701" fill="url(#paint0_linear_41_2)"/>
<path d="M0 0H103V720H0V0Z" fill="url(#paint1_linear_41_2)"/>
<path d="M451.679 39.169C451.478 38.517 451.2 37.9335 450.846 37.4183C450.5 36.8951 450.081 36.4484 449.59 36.0781C449.107 35.7079 448.552 35.4302 447.924 35.245C447.296 35.0518 446.612 34.9553 445.872 34.9553C444.543 34.9553 443.36 35.2893 442.322 35.9574C441.283 36.6255 440.466 37.6075 439.871 38.9034C439.283 40.1913 438.989 41.7609 438.989 43.6122C438.989 45.4796 439.283 47.0613 439.871 48.3572C440.458 49.6532 441.275 50.6392 442.322 51.3153C443.368 51.9834 444.584 52.3175 445.968 52.3175C447.224 52.3175 448.31 52.076 449.228 51.593C450.154 51.1101 450.866 50.4259 451.365 49.5405C451.864 48.647 452.114 47.6006 452.114 46.4013L453.128 46.5582H446.415V43.0568H456.448V46.027C456.448 48.1439 455.997 49.9751 455.096 51.5206C454.194 53.0661 452.955 54.2573 451.377 55.0945C449.8 55.9235 447.988 56.3381 445.944 56.3381C443.666 56.3381 441.666 55.8269 439.943 54.8047C438.229 53.7744 436.889 52.3134 435.923 50.4219C434.965 48.5223 434.486 46.2685 434.486 43.6605C434.486 41.6643 434.768 39.8814 435.331 38.3118C435.903 36.7422 436.699 35.41 437.722 34.3153C438.744 33.2126 439.943 32.3755 441.32 31.804C442.696 31.2244 444.193 30.9347 445.811 30.9347C447.18 30.9347 448.455 31.1359 449.639 31.5384C450.822 31.9328 451.872 32.4962 452.79 33.2287C453.716 33.9612 454.476 34.8305 455.072 35.8366C455.667 36.8428 456.058 37.9536 456.243 39.169H451.679ZM460.78 56V31.2727H465.259V52.245H476.15V56H460.78ZM501.17 43.6364C501.17 46.3007 500.671 48.5826 499.673 50.4822C498.683 52.3738 497.33 53.8227 495.616 54.8288C493.909 55.835 491.974 56.3381 489.808 56.3381C487.643 56.3381 485.703 55.835 483.989 54.8288C482.282 53.8146 480.93 52.3617 479.932 50.4702C478.942 48.5705 478.447 46.2926 478.447 43.6364C478.447 40.9721 478.942 38.6941 479.932 36.8026C480.93 34.9029 482.282 33.45 483.989 32.4439C485.703 31.4377 487.643 30.9347 489.808 30.9347C491.974 30.9347 493.909 31.4377 495.616 32.4439C497.33 33.45 498.683 34.9029 499.673 36.8026C500.671 38.6941 501.17 40.9721 501.17 43.6364ZM496.666 43.6364C496.666 41.7609 496.372 40.1792 495.785 38.8913C495.205 37.5954 494.4 36.6174 493.37 35.9574C492.34 35.2893 491.153 34.9553 489.808 34.9553C488.464 34.9553 487.277 35.2893 486.247 35.9574C485.216 36.6174 484.407 37.5954 483.82 38.8913C483.24 40.1792 482.95 41.7609 482.95 43.6364C482.95 45.5118 483.24 47.0975 483.82 48.3935C484.407 49.6813 485.216 50.6593 486.247 51.3274C487.277 51.9875 488.464 52.3175 489.808 52.3175C491.153 52.3175 492.34 51.9875 493.37 51.3274C494.4 50.6593 495.205 49.6813 495.785 48.3935C496.372 47.0975 496.666 45.5118 496.666 43.6364ZM505.405 56V31.2727H514.871C516.658 31.2727 518.143 31.5544 519.326 32.1179C520.517 32.6733 521.407 33.4339 521.994 34.3999C522.59 35.3658 522.888 36.4605 522.888 37.6839C522.888 38.6901 522.695 39.5514 522.308 40.2678C521.922 40.9761 521.403 41.5516 520.751 41.9943C520.099 42.437 519.37 42.755 518.565 42.9482V43.1896C519.443 43.2379 520.284 43.5076 521.089 43.9986C521.902 44.4815 522.566 45.1657 523.081 46.0511C523.596 46.9366 523.854 48.0071 523.854 49.2628C523.854 50.5426 523.544 51.6937 522.924 52.7159C522.304 53.7301 521.37 54.531 520.123 55.1186C518.875 55.7062 517.306 56 515.414 56H505.405ZM509.884 52.2571H514.702C516.328 52.2571 517.499 51.9472 518.215 51.3274C518.94 50.6996 519.302 49.8946 519.302 48.9126C519.302 48.1802 519.121 47.5201 518.758 46.9325C518.396 46.3369 517.881 45.87 517.213 45.532C516.545 45.1858 515.748 45.0128 514.822 45.0128H509.884V52.2571ZM509.884 41.7891H514.315C515.088 41.7891 515.784 41.6482 516.404 41.3665C517.024 41.0767 517.511 40.6702 517.865 40.147C518.227 39.6158 518.408 38.9879 518.408 38.2635C518.408 37.3056 518.07 36.5168 517.394 35.897C516.726 35.2772 515.732 34.9673 514.412 34.9673H509.884V41.7891ZM530.926 56H526.145L534.85 31.2727H540.38L549.097 56H544.316L537.711 36.3438H537.518L530.926 56ZM531.083 46.3047H544.123V49.9027H531.083V46.3047ZM552.354 56V31.2727H556.833V52.245H567.724V56H552.354ZM580.045 31.2727H585.527L592.868 49.1903H593.158L600.498 31.2727H605.98V56H601.682V39.0121H601.452L594.619 55.9276H591.407L584.573 38.9759H584.344V56H580.045V31.2727ZM632.953 43.6364C632.953 46.3007 632.454 48.5826 631.456 50.4822C630.466 52.3738 629.114 53.8227 627.399 54.8288C625.693 55.835 623.757 56.3381 621.592 56.3381C619.426 56.3381 617.486 55.835 615.772 54.8288C614.065 53.8146 612.713 52.3617 611.715 50.4702C610.725 48.5705 610.23 46.2926 610.23 43.6364C610.23 40.9721 610.725 38.6941 611.715 36.8026C612.713 34.9029 614.065 33.45 615.772 32.4439C617.486 31.4377 619.426 30.9347 621.592 30.9347C623.757 30.9347 625.693 31.4377 627.399 32.4439C629.114 33.45 630.466 34.9029 631.456 36.8026C632.454 38.6941 632.953 40.9721 632.953 43.6364ZM628.449 43.6364C628.449 41.7609 628.156 40.1792 627.568 38.8913C626.989 37.5954 626.184 36.6174 625.153 35.9574C624.123 35.2893 622.936 34.9553 621.592 34.9553C620.247 34.9553 619.06 35.2893 618.03 35.9574C616.999 36.6174 616.19 37.5954 615.603 38.8913C615.023 40.1792 614.734 41.7609 614.734 43.6364C614.734 45.5118 615.023 47.0975 615.603 48.3935C616.19 49.6813 616.999 50.6593 618.03 51.3274C619.06 51.9875 620.247 52.3175 621.592 52.3175C622.936 52.3175 624.123 51.9875 625.153 51.3274C626.184 50.6593 626.989 49.6813 627.568 48.3935C628.156 47.0975 628.449 45.5118 628.449 43.6364ZM639.168 31.2727L645.603 50.7358H645.857L652.28 31.2727H657.206L648.489 56H642.959L634.254 31.2727H639.168ZM660.463 56V31.2727H676.546V35.0277H664.943V41.7408H675.713V45.4957H664.943V52.245H676.642V56H660.463ZM700.597 41.8374V45.4354H689.465V41.8374H700.597ZM717.129 31.2727L723.564 50.7358H723.818L730.241 31.2727H735.167L726.45 56H720.92L712.215 31.2727H717.129ZM738.711 56H733.93L742.635 31.2727H748.165L756.882 56H752.101L745.497 36.3438H745.303L738.711 56ZM738.868 46.3047H751.908V49.9027H738.868V46.3047ZM760.139 56V31.2727H769.412C771.311 31.2727 772.905 31.6027 774.193 32.2628C775.489 32.9228 776.467 33.8485 777.127 35.0398C777.795 36.223 778.129 37.6035 778.129 39.1811C778.129 40.7668 777.791 42.1432 777.115 43.3104C776.447 44.4695 775.461 45.367 774.157 46.0028C772.853 46.6307 771.251 46.9446 769.351 46.9446H762.747V43.2259H768.748C769.859 43.2259 770.768 43.0729 771.476 42.767C772.185 42.4531 772.708 41.9983 773.046 41.4027C773.392 40.799 773.565 40.0585 773.565 39.1811C773.565 38.3037 773.392 37.5552 773.046 36.9354C772.7 36.3075 772.173 35.8326 771.464 35.5107C770.756 35.1806 769.842 35.0156 768.724 35.0156H764.619V56H760.139ZM772.913 44.7955L779.035 56H774.036L768.023 44.7955H772.913ZM786.732 31.2727V56H782.252V31.2727H786.732ZM794.758 56H789.977L798.682 31.2727H804.212L812.929 56H808.148L801.543 36.3438H801.35L794.758 56ZM794.915 46.3047H807.955V49.9027H794.915V46.3047ZM836.189 39.6158H831.674C831.545 38.8752 831.308 38.2192 830.961 37.6477C830.615 37.0682 830.185 36.5772 829.669 36.1747C829.154 35.7723 828.567 35.4704 827.907 35.2692C827.255 35.0599 826.55 34.9553 825.794 34.9553C824.45 34.9553 823.258 35.2933 822.22 35.9695C821.182 36.6375 820.369 37.6196 819.781 38.9155C819.193 40.2034 818.9 41.777 818.9 43.6364C818.9 45.5279 819.193 47.1217 819.781 48.4176C820.377 49.7055 821.19 50.6795 822.22 51.3395C823.258 51.9915 824.446 52.3175 825.782 52.3175C826.522 52.3175 827.214 52.2209 827.858 52.0277C828.51 51.8265 829.094 51.5327 829.609 51.1463C830.132 50.7599 830.571 50.285 830.925 49.7216C831.287 49.1581 831.537 48.5142 831.674 47.7898L836.189 47.8139C836.02 48.9891 835.654 50.0919 835.091 51.1222C834.535 52.1525 833.807 53.062 832.905 53.8509C832.004 54.6316 830.949 55.2434 829.742 55.6861C828.535 56.1207 827.194 56.3381 825.721 56.3381C823.548 56.3381 821.608 55.835 819.902 54.8288C818.195 53.8227 816.851 52.3698 815.869 50.4702C814.887 48.5705 814.396 46.2926 814.396 43.6364C814.396 40.9721 814.891 38.6941 815.881 36.8026C816.871 34.9029 818.219 33.45 819.926 32.4439C821.632 31.4377 823.564 30.9347 825.721 30.9347C827.098 30.9347 828.378 31.1278 829.561 31.5142C830.744 31.9006 831.799 32.468 832.724 33.2166C833.65 33.9571 834.41 34.8667 835.006 35.9453C835.61 37.0159 836.004 38.2393 836.189 39.6158ZM824.454 55.9759H826.82L826.627 57.0021C827.383 57.1148 828.023 57.4046 828.547 57.8714C829.078 58.3464 829.343 59.0265 829.343 59.9119C829.352 61.0549 828.84 61.9725 827.81 62.6648C826.78 63.357 825.311 63.7031 823.403 63.7031L823.355 61.554C824.281 61.554 825.017 61.4292 825.564 61.1797C826.112 60.9382 826.389 60.5518 826.397 60.0206C826.414 59.5054 826.22 59.1271 825.818 58.8857C825.424 58.6522 824.796 58.4912 823.934 58.4027L824.454 55.9759ZM843.168 56H838.387L847.092 31.2727H852.622L861.339 56H856.558L849.954 36.3438H849.76L843.168 56ZM843.325 46.3047H856.365V49.9027H843.325V46.3047ZM846.319 28.8338L843.663 28.7734C843.663 27.3407 844.033 26.2178 844.774 25.4048C845.522 24.5919 846.436 24.1854 847.515 24.1854C848.038 24.1854 848.493 24.2739 848.879 24.451C849.273 24.62 849.632 24.8172 849.954 25.0426C850.276 25.268 850.593 25.4692 850.907 25.6463C851.221 25.8153 851.567 25.8999 851.946 25.8999C852.405 25.8999 852.767 25.7268 853.032 25.3807C853.306 25.0346 853.447 24.5919 853.455 24.0526L856.051 24.1612C856.043 25.602 855.669 26.7209 854.928 27.5178C854.187 28.3066 853.282 28.705 852.211 28.7131C851.624 28.7131 851.133 28.6286 850.738 28.4595C850.344 28.2824 849.998 28.0812 849.7 27.8558C849.41 27.6304 849.116 27.4332 848.819 27.2642C848.521 27.0871 848.171 26.9986 847.768 26.9986C847.342 26.9986 846.991 27.1676 846.718 27.5057C846.452 27.8437 846.319 28.2865 846.319 28.8338ZM885.529 43.6364C885.529 46.3007 885.03 48.5826 884.032 50.4822C883.042 52.3738 881.69 53.8227 879.975 54.8288C878.269 55.835 876.333 56.3381 874.168 56.3381C872.002 56.3381 870.063 55.835 868.348 54.8288C866.642 53.8146 865.289 52.3617 864.291 50.4702C863.301 48.5705 862.806 46.2926 862.806 43.6364C862.806 40.9721 863.301 38.6941 864.291 36.8026C865.289 34.9029 866.642 33.45 868.348 32.4439C870.063 31.4377 872.002 30.9347 874.168 30.9347C876.333 30.9347 878.269 31.4377 879.975 32.4439C881.69 33.45 883.042 34.9029 884.032 36.8026C885.03 38.6941 885.529 40.9721 885.529 43.6364ZM881.026 43.6364C881.026 41.7609 880.732 40.1792 880.144 38.8913C879.565 37.5954 878.76 36.6174 877.729 35.9574C876.699 35.2893 875.512 34.9553 874.168 34.9553C872.823 34.9553 871.636 35.2893 870.606 35.9574C869.576 36.6174 868.767 37.5954 868.179 38.8913C867.6 40.1792 867.31 41.7609 867.31 43.6364C867.31 45.5118 867.6 47.0975 868.179 48.3935C868.767 49.6813 869.576 50.6593 870.606 51.3274C871.636 51.9875 872.823 52.3175 874.168 52.3175C875.512 52.3175 876.699 51.9875 877.729 51.3274C878.76 50.6593 879.565 49.6813 880.144 48.3935C880.732 47.0975 881.026 45.5118 881.026 43.6364Z" fill="white"/>
<g filter="url(#filter0_d_41_2)">
<rect x="136" y="201" width="1116" height="235" rx="25" fill="url(#paint2_linear_41_2)"/>
</g>
<g filter="url(#filter1_d_41_2)">
<rect x="136" y="452" width="1116" height="235" rx="25" fill="url(#paint3_linear_41_2)"/>
</g>
<g filter="url(#filter2_d_41_2)">
<rect x="136" y="82" width="270" height="100" rx="25" fill="url(#paint4_linear_41_2)"/>
</g>
<g filter="url(#filter3_d_41_2)">
<rect x="418" y="82" width="270" height="100" rx="25" fill="url(#paint5_linear_41_2)"/>
</g>
<g filter="url(#filter4_d_41_2)">
<path d="M700 107C700 93.1929 711.193 82 725 82H945C958.807 82 970 93.1929 970 107V157C970 170.807 958.807 182 945 182H725C711.193 182 700 170.807 700 157V107Z" fill="url(#paint6_linear_41_2)"/>
</g>
<g filter="url(#filter5_d_41_2)">
<rect x="982" y="82" width="270" height="100" rx="25" fill="url(#paint7_linear_41_2)"/>
</g>
<path d="M38.25 468.333C42.4375 473.729 52.8333 487.083 52.8333 487.083V501.667H61.1667V487.083C61.1667 487.083 71.5417 473.729 75.75 468.333H38.25Z" fill="white"/>
<path d="M56.9999 183.374L34.0833 204H40.3333V222.75H52.8333V208.167H61.1666V222.75H73.6666V204H79.9166L56.9999 183.374Z" fill="white"/>
<path d="M57 164.5C76.5524 164.5 92.5 182.352 92.5 204.5C92.5 226.648 76.5524 244.5 57 244.5C37.4476 244.5 21.5 226.648 21.5 204.5C21.5 182.352 37.4476 164.5 57 164.5Z" stroke="white"/>
<path d="M57 442.5C76.5524 442.5 92.5 460.352 92.5 482.5C92.5 504.648 76.5524 522.5 57 522.5C37.4476 522.5 21.5 504.648 21.5 482.5C21.5 460.352 37.4476 442.5 57 442.5Z" stroke="white"/>
<path d="M57 303.5C76.5524 303.5 92.5 321.352 92.5 343.5C92.5 365.648 76.5524 383.5 57 383.5C37.4476 383.5 21.5 365.648 21.5 343.5C21.5 321.352 37.4476 303.5 57 303.5Z" stroke="white"/>
<g clip-path="url(#clip1_41_2)">
<path d="M62.1666 322.167H41.3333V363.833H74.6666V334.667L62.1666 322.167ZM66.3333 355.5H49.6666V351.333H66.3333V355.5ZM66.3333 347.167H49.6666V343H66.3333V347.167ZM60.0833 336.75V325.292L71.5416 336.75H60.0833Z" fill="white"/>
</g>
</g>
<defs>
<filter id="filter0_d_41_2" x="136" y="201" width="1130" height="253" filterUnits="userSpaceOnUse" color-interpolation-filters="sRGB">
<feFlood flood-opacity="0" result="BackgroundImageFix"/>
<feColorMatrix in="SourceAlpha" type="matrix" values="0 0 0 0 0 0 0 0 0 0 0 0 0 0 0 0 0 0 127 0" result="hardAlpha"/>
<feOffset dx="10" dy="14"/>
<feGaussianBlur stdDeviation="2"/>
<feComposite in2="hardAlpha" operator="out"/>
<feColorMatrix type="matrix" values="0 0 0 0 0 0 0 0 0 0 0 0 0 0 0 0 0 0 0.25 0"/>
<feBlend mode="normal" in2="BackgroundImageFix" result="effect1_dropShadow_41_2"/>
<feBlend mode="normal" in="SourceGraphic" in2="effect1_dropShadow_41_2" result="shape"/>
</filter>
<filter id="filter1_d_41_2" x="136" y="452" width="1130" height="253" filterUnits="userSpaceOnUse" color-interpolation-filters="sRGB">
<feFlood flood-opacity="0" result="BackgroundImageFix"/>
<feColorMatrix in="SourceAlpha" type="matrix" values="0 0 0 0 0 0 0 0 0 0 0 0 0 0 0 0 0 0 127 0" result="hardAlpha"/>
<feOffset dx="10" dy="14"/>
<feGaussianBlur stdDeviation="2"/>
<feComposite in2="hardAlpha" operator="out"/>
<feColorMatrix type="matrix" values="0 0 0 0 0 0 0 0 0 0 0 0 0 0 0 0 0 0 0.25 0"/>
<feBlend mode="normal" in2="BackgroundImageFix" result="effect1_dropShadow_41_2"/>
<feBlend mode="normal" in="SourceGraphic" in2="effect1_dropShadow_41_2" result="shape"/>
</filter>
<filter id="filter2_d_41_2" x="136" y="82" width="284" height="118" filterUnits="userSpaceOnUse" color-interpolation-filters="sRGB">
<feFlood flood-opacity="0" result="BackgroundImageFix"/>
<feColorMatrix in="SourceAlpha" type="matrix" values="0 0 0 0 0 0 0 0 0 0 0 0 0 0 0 0 0 0 127 0" result="hardAlpha"/>
<feOffset dx="10" dy="14"/>
<feGaussianBlur stdDeviation="2"/>
<feComposite in2="hardAlpha" operator="out"/>
<feColorMatrix type="matrix" values="0 0 0 0 0 0 0 0 0 0 0 0 0 0 0 0 0 0 0.25 0"/>
<feBlend mode="normal" in2="BackgroundImageFix" result="effect1_dropShadow_41_2"/>
<feBlend mode="normal" in="SourceGraphic" in2="effect1_dropShadow_41_2" result="shape"/>
</filter>
<filter id="filter3_d_41_2" x="418" y="82" width="284" height="118" filterUnits="userSpaceOnUse" color-interpolation-filters="sRGB">
<feFlood flood-opacity="0" result="BackgroundImageFix"/>
<feColorMatrix in="SourceAlpha" type="matrix" values="0 0 0 0 0 0 0 0 0 0 0 0 0 0 0 0 0 0 127 0" result="hardAlpha"/>
<feOffset dx="10" dy="14"/>
<feGaussianBlur stdDeviation="2"/>
<feComposite in2="hardAlpha" operator="out"/>
<feColorMatrix type="matrix" values="0 0 0 0 0 0 0 0 0 0 0 0 0 0 0 0 0 0 0.25 0"/>
<feBlend mode="normal" in2="BackgroundImageFix" result="effect1_dropShadow_41_2"/>
<feBlend mode="normal" in="SourceGraphic" in2="effect1_dropShadow_41_2" result="shape"/>
</filter>
<filter id="filter4_d_41_2" x="700" y="82" width="284" height="118" filterUnits="userSpaceOnUse" color-interpolation-filters="sRGB">
<feFlood flood-opacity="0" result="BackgroundImageFix"/>
<feColorMatrix in="SourceAlpha" type="matrix" values="0 0 0 0 0 0 0 0 0 0 0 0 0 0 0 0 0 0 127 0" result="hardAlpha"/>
<feOffset dx="10" dy="14"/>
<feGaussianBlur stdDeviation="2"/>
<feComposite in2="hardAlpha" operator="out"/>
<feColorMatrix type="matrix" values="0 0 0 0 0 0 0 0 0 0 0 0 0 0 0 0 0 0 0.25 0"/>
<feBlend mode="normal" in2="BackgroundImageFix" result="effect1_dropShadow_41_2"/>
<feBlend mode="normal" in="SourceGraphic" in2="effect1_dropShadow_41_2" result="shape"/>
</filter>
<filter id="filter5_d_41_2" x="982" y="82" width="284" height="118" filterUnits="userSpaceOnUse" color-interpolation-filters="sRGB">
<feFlood flood-opacity="0" result="BackgroundImageFix"/>
<feColorMatrix in="SourceAlpha" type="matrix" values="0 0 0 0 0 0 0 0 0 0 0 0 0 0 0 0 0 0 127 0" result="hardAlpha"/>
<feOffset dx="10" dy="14"/>
<feGaussianBlur stdDeviation="2"/>
<feComposite in2="hardAlpha" operator="out"/>
<feColorMatrix type="matrix" values="0 0 0 0 0 0 0 0 0 0 0 0 0 0 0 0 0 0 0.25 0"/>
<feBlend mode="normal" in2="BackgroundImageFix" result="effect1_dropShadow_41_2"/>
<feBlend mode="normal" in="SourceGraphic" in2="effect1_dropShadow_41_2" result="shape"/>
</filter>
<linearGradient id="paint0_linear_41_2" x1="0" y1="0" x2="1263.32" y2="729.876" gradientUnits="userSpaceOnUse">
<stop/>
<stop offset="1" stop-color="#1652E9"/>
</linearGradient>
<linearGradient id="paint1_linear_41_2" x1="0" y1="0" x2="103" y2="720" gradientUnits="userSpaceOnUse">
<stop stop-color="#163B9A"/>
<stop offset="1"/>
</linearGradient>
<linearGradient id="paint2_linear_41_2" x1="136" y1="201" x2="1242.26" y2="475.287" gradientUnits="userSpaceOnUse">
<stop stop-color="#1652E9"/>
<stop offset="1" stop-color="#1E1E1E"/>
</linearGradient>
<linearGradient id="paint3_linear_41_2" x1="136" y1="452" x2="1242.26" y2="726.287" gradientUnits="userSpaceOnUse">
<stop stop-color="#1652E9"/>
<stop offset="1" stop-color="#1E1E1E"/>
</linearGradient>
<linearGradient id="paint4_linear_41_2" x1="136" y1="82" x2="406" y2="182" gradientUnits="userSpaceOnUse">
<stop stop-color="#1652E9"/>
<stop offset="1" stop-color="#1E1E1E"/>
</linearGradient>
<linearGradient id="paint5_linear_41_2" x1="418" y1="82" x2="688" y2="182" gradientUnits="userSpaceOnUse">
<stop stop-color="#1652E9"/>
<stop offset="1" stop-color="#1E1E1E"/>
</linearGradient>
<linearGradient id="paint6_linear_41_2" x1="700" y1="82" x2="970" y2="182" gradientUnits="userSpaceOnUse">
<stop stop-color="#1652E9"/>
<stop offset="1" stop-color="#1E1E1E"/>
</linearGradient>
<linearGradient id="paint7_linear_41_2" x1="990" y1="90" x2="1252" y2="182" gradientUnits="userSpaceOnUse">
<stop stop-color="#1652E9"/>
<stop offset="1" stop-color="#1E1E1E"/>
</linearGradient>
<clipPath id="clip0_41_2">
<rect width="1280" height="701" fill="white"/>
</clipPath>
<clipPath id="clip1_41_2">
<rect width="50" height="50" fill="white" transform="translate(33 318)"/>
</clipPath>
</defs>
</svg>
